<svg width="225" height="40" viewBox="0 0 225 40" fill="none" xmlns="http://www.w3.org/2000/svg">
<path d="M37.1857 1.65381H0.168518V38.671H37.1857V1.65381Z" fill="#E62A45"/>
<path d="M22.6894 33.129H11.0488H5.42279V27.4494V6.9477H11.0482V27.4494H22.6889L22.6894 33.129ZM18.8522 15.229V25.1164H13.3799V6.92773H18.7772L18.8522 7.03132L26.4904 17.3385L26.492 6.92773H31.886L31.8634 25.0943L26.5147 25.0938L18.8522 15.229ZM28.6548 27.4499C28.5863 27.4499 28.5302 27.3938 28.5302 27.3253C28.5302 27.2567 28.5863 27.2007 28.6548 27.2007H30.1193C30.1878 27.2007 30.244 27.2567 30.244 27.3253C30.244 27.3938 30.1878 27.4499 30.1193 27.4499H28.6548ZM29.6321 28.2581C29.6321 28.4232 29.4982 28.557 29.3331 28.557C29.168 28.557 29.0342 28.4232 29.0342 28.2581C29.0342 28.0931 29.168 27.9593 29.3331 27.9593C29.4982 27.9593 29.6321 28.0931 29.6321 28.2581ZM29.1928 26.6228H29.6051C29.6736 26.6228 29.7297 26.6789 29.7297 26.7474C29.7297 26.816 29.6736 26.872 29.6051 26.872H29.1928C29.1242 26.872 29.0682 26.816 29.0682 26.7474C29.0687 26.6789 29.1248 26.6228 29.1928 26.6228ZM29.0951 26.2818C29.0951 26.114 29.2311 25.9786 29.3984 25.9786C29.5662 25.9786 29.7016 26.1145 29.7016 26.2818C29.7016 26.4496 29.5656 26.5851 29.3984 26.5851C29.2311 26.5851 29.0951 26.4496 29.0951 26.2818ZM29.8042 26.9179C29.8727 26.9179 29.9289 26.974 29.9289 27.0425C29.9289 27.1111 29.8727 27.1672 29.8042 27.1672H28.9462C28.8776 27.1672 28.8216 27.1111 28.8216 27.0425C28.8216 26.974 28.8776 26.9179 28.9462 26.9179H29.8042ZM28.9522 33.1441C28.8409 33.0362 28.7708 32.8868 28.7708 32.72C28.7708 32.5749 28.8231 32.4416 28.9095 32.3386C28.958 32.2102 29.9024 31.4785 29.9024 31.4785C30.0065 31.3815 30.0724 31.2439 30.0724 31.0902C30.0724 30.9364 30.0065 30.7988 29.9024 30.7017V30.7C29.4933 30.1627 28.9181 29.9226 28.7875 29.717C28.7832 29.7111 28.7789 29.7046 28.7757 29.6982C28.7757 29.6976 28.7751 29.6976 28.7751 29.6971C28.7703 29.6879 28.7573 29.6782 28.7541 29.6679C28.7465 29.6491 28.7438 29.6285 28.7444 29.6069C28.7514 29.4645 28.7989 29.4742 28.7989 29.3987C28.7989 29.2962 28.7627 29.2034 28.7045 29.1284C28.6942 29.1165 28.6591 29.089 28.6554 29.0744C28.6316 28.9876 28.6958 28.8975 28.6958 28.8025C28.6958 28.2764 28.2695 27.8502 27.7434 27.8502C27.7056 27.8502 27.6689 27.8529 27.6328 27.8572L27.2783 27.9732C27.2659 27.9803 27.2534 27.9873 27.241 27.9949C27.2345 27.9986 27.2286 28.0029 27.2227 28.0073C27.2842 28.0472 27.9004 28.4572 27.9824 28.9806L27.9781 28.9827C27.9798 28.9897 27.9824 28.9962 27.9824 29.0032C27.9824 29.055 27.9404 29.0971 27.8885 29.0971C27.8578 29.0971 27.8319 29.0814 27.8147 29.0588L27.8136 29.0593C27.8136 29.0593 27.8114 29.0556 27.8082 29.0491C27.8055 29.0447 27.8027 29.0404 27.8012 29.0356C27.7358 28.9137 27.4034 28.3298 26.9755 28.2441C26.9238 28.2387 26.8871 28.2284 26.8595 28.216C26.8223 28.2026 26.7921 28.1745 26.7748 28.1389C26.7743 28.1389 26.7743 28.1378 26.7737 28.1378C26.7645 28.1184 26.7597 28.0968 26.7597 28.0742C26.7597 28.0142 26.7947 27.9625 26.846 27.9382C26.846 27.9382 27.5998 27.5578 27.7898 27.5578C27.792 27.5578 27.793 27.5583 27.7952 27.5583C27.8492 27.5487 27.9037 27.5427 27.9603 27.5427C28.4125 27.5427 28.7903 27.8583 28.8874 28.2807C28.8879 28.284 28.889 28.2862 28.8896 28.2889C28.8944 28.311 28.8982 28.3337 28.9014 28.3568C29.0444 29.1812 29.21 29.6636 29.4405 29.8406C29.5543 29.928 29.7329 30.1011 29.8889 30.2582C30.0141 30.3396 30.1193 30.4486 30.197 30.5771C30.1987 30.5786 30.2008 30.5808 30.2008 30.5808H30.1992C30.2877 30.7287 30.3394 30.9007 30.3394 31.0853C30.3394 31.1327 30.3351 31.1786 30.3287 31.2244C30.3287 31.2272 30.3287 31.2298 30.3287 31.2326C30.3216 31.3426 30.2823 31.4468 30.2262 31.5439C30.1641 31.6615 30.0794 31.7656 29.9769 31.8487C29.8965 31.9243 29.815 31.9884 29.7453 32.0381C29.3628 32.3132 29.0682 32.4989 29.0682 32.8377C29.0682 32.8883 29.1248 32.9898 29.1362 33.0373C29.1416 33.0502 29.1448 33.0648 29.1448 33.0799C29.1448 33.1393 29.0968 33.1878 29.0369 33.1878C29.0018 33.1873 28.9721 33.1694 28.9522 33.1441ZM28.9937 33.4818C28.9937 33.3772 29.1086 33.2925 29.2505 33.2925C29.3925 33.2925 29.5074 33.3772 29.5074 33.4818C29.5074 33.5865 29.3925 33.6713 29.2505 33.6713C29.1086 33.6713 28.9937 33.5865 28.9937 33.4818ZM29.1734 33.8223C29.1734 33.7462 29.2705 33.6847 29.3898 33.6847C29.509 33.6847 29.6061 33.7462 29.6061 33.8223C29.6061 33.8984 29.509 33.9599 29.3898 33.9599C29.27 33.9599 29.1734 33.8984 29.1734 33.8223ZM29.4982 34.2C29.4108 34.2 29.3402 34.1509 29.3402 34.0899C29.3402 34.029 29.4108 33.9799 29.4982 33.9799C29.5856 33.9799 29.6563 34.029 29.6563 34.0899C29.6563 34.1503 29.5856 34.2 29.4982 34.2ZM31.8186 28.5333C31.818 28.5338 31.8186 28.5344 31.818 28.5349C31.7576 28.618 31.7306 28.5835 31.5552 28.713C31.5547 28.7135 31.5542 28.7135 31.5536 28.714C31.5558 28.7151 31.5585 28.7151 31.5606 28.7162C31.4559 28.8047 31.2164 29.0167 31.0868 29.1748C31.0718 29.1937 31.0588 29.2109 31.048 29.225C31.0329 29.2465 31.0205 29.2665 31.0118 29.2843C31.0118 29.2833 31.0113 29.2822 31.0113 29.2811C31.0075 29.3129 30.9816 29.3377 30.9487 29.3377C30.9131 29.3377 30.8845 29.3091 30.8845 29.2735C30.8845 29.2703 30.8861 29.267 30.8867 29.2638C30.8861 29.2655 30.885 29.267 30.885 29.2687C30.8807 29.2422 30.8747 29.2093 30.8747 29.1818C30.8747 29.089 30.9018 29.0032 30.9455 28.9287C30.9466 28.9255 30.9476 28.9223 30.9487 28.9196C31.0005 28.8047 31.3054 28.5716 31.3054 28.5716C31.4171 28.4955 31.5229 28.4291 31.579 28.365C31.5816 28.3622 31.5833 28.359 31.5855 28.3563C31.593 28.3472 31.5995 28.3375 31.6043 28.3283C31.6065 28.3245 31.6082 28.3202 31.6097 28.3164C31.6162 28.3013 31.6205 28.2856 31.6189 28.2705C31.6189 28.2316 31.6016 28.1971 31.5747 28.1729C31.5099 28.0903 31.3885 28.0148 31.3016 27.9673C31.3146 27.9571 31.3286 27.9484 31.3427 27.9398C31.3307 27.9468 31.3189 27.9538 31.3081 27.9619C31.1743 27.8967 31.0248 27.8589 30.8661 27.8589C30.3098 27.8589 29.8587 28.3099 29.8587 28.8662C29.8587 29.1883 29.9299 29.2417 30.1652 29.4262C30.2321 29.4537 30.2791 29.5196 30.2791 29.5961C30.2791 29.6382 30.2645 29.6765 30.2407 29.7073C30.2942 29.8416 30.366 29.9754 30.4248 30.0245C30.6055 30.1939 30.8445 30.9709 30.8445 30.9709C30.8445 30.9709 30.823 31.8169 30.2062 32.1233C29.7507 32.3494 29.6261 32.5841 29.5922 32.692C29.5922 32.6947 29.5937 32.6968 29.5937 32.7001C29.5937 32.7184 29.5878 32.7352 29.5791 32.7502C29.5791 32.7513 29.5791 32.753 29.5791 32.753L29.5781 32.7524C29.5598 32.7832 29.5279 32.8047 29.489 32.8047C29.4313 32.8047 29.3844 32.7578 29.3844 32.7001C29.4016 32.3343 29.8382 31.9987 30.1279 31.8606C30.4177 31.7225 30.8462 31.0917 30.3789 30.4783C30.0659 30.0672 29.85 29.6663 29.741 29.4467C29.7125 29.3954 29.6871 29.342 29.6655 29.2865C29.6623 29.2789 29.6596 29.2735 29.6596 29.2735L29.6612 29.2762C29.6089 29.137 29.5791 28.9865 29.5791 28.8289C29.5791 28.127 30.1485 27.5578 30.8505 27.5578C31.2293 27.5578 31.5682 27.7245 31.8008 27.9867C31.8763 28.0569 31.9249 28.1567 31.9249 28.2684C31.9243 28.3714 31.8838 28.4642 31.8186 28.5333Z" fill="white"/>
<path d="M52.374 23.3128H58.1689L61.4162 10.3795L64.5516 23.3128H70.3464L75.4693 3.6608H70.3184L67.463 17.9659L64.1037 3.6608H58.8407L55.3414 17.9659L52.514 3.6608H47.3911L52.374 23.3128ZM89.9074 3.6608H77.8701V23.3128H89.9074V19.4776H82.6572V15.1665H89.0674V11.4712H82.6572V7.49603H89.9074V3.6608ZM103.849 17.3221C103.849 18.7218 102.925 19.4496 101.33 19.4496H97.8023V15.1105H101.274C102.87 15.1105 103.849 15.9223 103.849 17.3221ZM103.373 9.56764C103.373 10.9113 102.506 11.6112 100.938 11.6112H97.8023V7.49603H100.938C102.506 7.49603 103.373 8.22387 103.373 9.56764ZM108.693 17.9659C108.693 15.7264 107.209 13.7108 104.913 13.2349C106.816 12.675 108.245 11.1353 108.245 8.75579C108.245 5.6484 105.865 3.6608 101.862 3.6608H93.0157V23.3128H102.169C106.313 23.3128 108.693 21.2133 108.693 17.9659ZM121.348 23.3128H127.144L130.391 10.3795L133.526 23.3128H139.321L144.444 3.6608H139.293L136.438 17.9659L133.078 3.6608H127.815L124.316 17.9659L121.489 3.6608H116.365L121.348 23.3128ZM166.188 13.4309C166.188 7.52403 161.737 3.38086 156.139 3.38086C150.568 3.38086 146.033 7.52403 146.033 13.4309C146.033 19.3377 150.568 23.5088 156.139 23.5088C161.71 23.5088 166.188 19.3377 166.188 13.4309ZM150.932 13.4309C150.932 9.93156 152.947 7.71998 156.139 7.71998C159.274 7.71998 161.318 9.93156 161.318 13.4309C161.318 16.8741 159.274 19.1417 156.139 19.1417C152.947 19.1417 150.932 16.8741 150.932 13.4309ZM179.238 10.0435C179.238 11.5832 178.398 12.507 176.606 12.507H173.638V7.636H176.606C178.398 7.636 179.238 8.58779 179.238 10.0435ZM168.852 3.6608V23.3128H173.638V15.8943H174.787L178.874 23.3128H184.277L179.741 15.5304C182.765 14.6346 184.109 12.3111 184.109 9.84756C184.109 6.43225 181.701 3.6608 176.886 3.6608H168.852ZM198.507 23.3128H204.358L196.464 13.2909L204.078 3.6608H198.452L191.9 12.2831V3.6608H187.114V23.3128H191.9V14.6346L198.507 23.3128ZM220.911 17.462C220.911 10.8833 211.196 12.423 211.196 9.00771C211.196 7.77597 212.064 7.18809 213.212 7.21608C214.5 7.24408 215.395 7.99995 215.479 9.25964H220.658C220.463 5.50843 217.579 3.38086 213.296 3.38086C209.18 3.38086 206.129 5.45244 206.129 9.17571C206.073 16.1463 215.9 14.1867 215.9 17.8259C215.9 18.9737 215.003 19.6736 213.604 19.6736C212.26 19.6736 211.308 18.9458 211.169 17.434H206.073C206.213 21.4092 209.517 23.5088 213.744 23.5088C218.335 23.5088 220.911 20.7654 220.911 17.462Z" fill="#1F0B10"/>
<path d="M47.8633 30.6173V36.5245H50.9946V35.585H49.0481V30.6173H47.8633ZM56.4361 36.5245H57.6887L55.5645 30.6089H54.185L52.0608 36.5245H53.3049L53.6942 35.3989H56.0469L56.4361 36.5245ZM55.7253 34.451H54.0157L54.8705 31.9798L55.7253 34.451ZM62.6972 36.5245H64.0597L62.1725 33.5878L64.0259 30.6173H62.6888L61.5378 32.5977L60.2599 30.6173H58.8974L60.7846 33.5455L58.9227 36.5245H60.2599L61.4193 34.5356L62.6972 36.5245ZM65.6385 36.5245H66.8233V32.6823L68.4143 36.5245H69.3114L70.894 32.6823V36.5245H72.0788V30.6173H70.7417L68.8629 35.0096L66.9841 30.6173H65.6385V36.5245ZM73.9273 36.5245H75.112V30.6173H73.9273V36.5245ZM83.5208 30.6089V34.6711L80.8384 30.6089H79.6533V36.5245H80.8384V32.4707L83.5208 36.5245H84.7059V30.6089H83.5208ZM90.5647 36.5245H91.8172L89.6933 30.6089H88.3137L86.1898 36.5245H87.4337L87.8227 35.3989H90.1757L90.5647 36.5245ZM89.8541 34.451H88.1443L88.9992 31.9798L89.8541 34.451ZM96.4196 32.4537C96.4196 32.9869 96.1239 33.3339 95.4635 33.3339H94.4737V31.599H95.4635C96.1239 31.599 96.4196 31.929 96.4196 32.4537ZM93.2886 30.6173V36.5245H94.4737V34.2225H95.0321L96.3349 36.5245H97.7058L96.2925 34.1294C97.2408 33.8755 97.6384 33.1477 97.6384 32.4284C97.6384 31.4382 96.9278 30.6173 95.5058 30.6173H93.2886ZM103.398 36.5245H104.651L102.527 30.6089H101.147L99.0235 36.5245H100.267L100.656 35.3989H103.009L103.398 36.5245ZM102.688 34.451H100.978L101.833 31.9798L102.688 34.451ZM107.637 34.4679V36.5245H108.822V34.4679L110.819 30.6173H109.499L108.238 33.317L106.969 30.6173H105.631L107.637 34.4679ZM116.191 36.5245H117.443L115.319 30.6089H113.94L111.816 36.5245H113.06L113.449 35.3989H115.802L116.191 36.5245ZM115.48 34.451H113.77L114.625 31.9798L115.48 34.451ZM122.782 30.6089V34.6711L120.1 30.6089H118.914V36.5245H120.1V32.4707L122.782 36.5245H123.967V30.6089H122.782ZM129.702 36.5329L131.089 36.5245L132.249 32.3184L133.358 36.5245H134.754L136.404 30.6173H135.126L134.077 35.1788L132.943 30.6173H131.623L130.421 35.2042L129.38 30.6173H128.111L129.702 36.5329ZM141.282 30.6089H137.855V36.5245H141.282V35.5597H139.04V33.994H141.028V33.0547H139.04V31.5737H141.282V30.6089ZM146.329 34.7811C146.329 35.2804 145.99 35.5597 145.414 35.5597H144.221V33.9686H145.389C145.965 33.9686 146.329 34.2733 146.329 34.7811ZM146.184 32.3184C146.184 32.8007 145.863 33.0547 145.304 33.0547H144.221V31.5737H145.304C145.863 31.5737 146.184 31.8444 146.184 32.3184ZM147.53 34.9249C147.53 34.231 147.056 33.6132 146.387 33.4947C146.963 33.3086 147.394 32.86 147.394 32.1406C147.394 31.2605 146.709 30.6173 145.474 30.6173H143.036V36.5245H145.583C146.811 36.5245 147.53 35.8643 147.53 34.9249ZM150.344 36.5329L151.733 36.5245L152.892 32.3184L154.001 36.5245H155.397L157.047 30.6173H155.769L154.72 35.1788L153.586 30.6173H152.266L151.064 35.2042L150.023 30.6173H148.754L150.344 36.5329ZM164.261 33.554C164.261 31.7852 162.924 30.5327 161.24 30.5327C159.573 30.5327 158.21 31.7852 158.21 33.554C158.21 35.3311 159.573 36.5837 161.24 36.5837C162.915 36.5837 164.261 35.3311 164.261 33.554ZM159.429 33.554C159.429 32.3522 160.165 31.599 161.24 31.599C162.307 31.599 163.042 32.3522 163.042 33.554C163.042 34.7557 162.307 35.5258 161.24 35.5258C160.165 35.5258 159.429 34.7557 159.429 33.554ZM168.951 32.4537C168.951 32.9869 168.655 33.3339 167.994 33.3339H167.005V31.599H167.994C168.655 31.599 168.951 31.929 168.951 32.4537ZM165.82 30.6173V36.5245H167.005V34.2225H167.563L168.867 36.5245H170.238L168.824 34.1294C169.772 33.8755 170.169 33.1477 170.169 32.4284C170.169 31.4382 169.459 30.6173 168.037 30.6173H165.82ZM175.253 36.5245H176.751L174.245 33.5455L176.683 30.6173H175.253L173.103 33.2662V30.6173H171.918V36.5245H173.103V33.8925L175.253 36.5245ZM182.337 34.8149C182.337 32.733 179.307 33.3932 179.307 32.2083C179.307 31.726 179.654 31.4974 180.12 31.5144C180.627 31.5228 180.94 31.8275 180.966 32.2168H182.269C182.193 31.1504 181.364 30.5327 180.154 30.5327C178.935 30.5327 178.071 31.1759 178.071 32.2422C178.063 34.3833 181.11 33.6132 181.11 34.8911C181.11 35.3143 180.78 35.6104 180.221 35.6104C179.671 35.6104 179.358 35.2973 179.324 34.8234H178.055C178.071 35.9405 179.02 36.5837 180.246 36.5837C181.592 36.5837 182.337 35.7459 182.337 34.8149ZM187.919 33.3001V31.582H188.859C189.528 31.582 189.823 31.9037 189.823 32.4453C189.823 32.97 189.528 33.3001 188.859 33.3001H187.919ZM191.042 32.4453C191.042 31.4213 190.332 30.6173 188.91 30.6173H186.735V36.5245H187.919V34.2564H188.91C190.433 34.2564 191.042 33.3424 191.042 32.4453ZM194.99 35.3143L193.365 30.6173H192.095L194.262 36.5245H195.7L197.867 30.6173H196.606L194.99 35.3143ZM198.941 31.5737H200.515V36.5245H201.7V31.5737H203.274V30.6173H198.941V31.5737ZM207.509 30.6173V36.5245H210.641V35.585H208.694V30.6173H207.509ZM211.758 31.5737H213.332V36.5245H214.517V31.5737H216.091V30.6173H211.758V31.5737ZM219.697 30.6173H217.632V36.5245H219.697C221.584 36.5245 222.812 35.365 222.812 33.5793C222.812 31.7852 221.584 30.6173 219.697 30.6173ZM218.817 35.5173V31.6159H219.655C220.899 31.6159 221.602 32.3522 221.602 33.5793C221.602 34.8064 220.899 35.5173 219.655 35.5173H218.817Z" fill="#1F0B10"/>
</svg>
